name C:/MyDriveSym/Projects/mobilecap/Data\Session20210823_0002\mocap\ForceDataProcessed\walking3_forces.mot
datacolumns 19
datarows 19
range 0.36200000 0.37100000
endheader 
time	R_ground_force_vx	R_ground_force_vy	R_ground_force_vz	R_ground_force_px	R_ground_force_py	R_ground_force_pz	R_ground_torque_x	R_ground_torque_y	R_ground_torque_z	L_ground_force_vx	L_ground_force_vy	L_ground_force_vz	L_ground_force_px	L_ground_force_py	L_ground_force_pz	L_ground_torque_x	L_ground_torque_y	L_ground_torque_z	
          0.36200000	        -11.13289600	        514.29594700	        -16.11489500	          0.28244900	          0.00600000	         -0.13015200	          0.00000000	         -1.87903900	          0.00000000	          0.00000000	          0.00000000	          0.00000000	          0.67258500	          0.00000000	         -0.22945800	          0.00000000	          0.00000000	          0.00000000	
          0.36250000	        -10.98366500	        514.35529300	        -16.11636000	          0.28255400	          0.00600000	         -0.13014600	          0.00000000	         -1.88936600	          0.00000000	          0.00000000	          0.00000000	          0.00000000	          0.67258500	          0.00000000	         -0.22945800	          0.00000000	          0.00000000	          0.00000000	
          0.36300000	        -10.83456800	        514.41887700	        -16.11842900	          0.28265800	          0.00600000	         -0.13014000	          0.00000000	         -1.89966700	          0.00000000	          0.00000000	          0.00000000	          0.00000000	          0.67258500	          0.00000000	         -0.22945800	          0.00000000	          0.00000000	          0.00000000	
          0.36350000	        -10.68560000	        514.48669300	        -16.12110500	          0.28276300	          0.00600000	         -0.13013400	          0.00000000	         -1.90994100	          0.00000000	          0.00000000	          0.00000000	          0.00000000	          0.67258500	          0.00000000	         -0.22945800	          0.00000000	          0.00000000	          0.00000000	
          0.36400000	        -10.53675800	        514.55873300	        -16.12439200	          0.28286700	          0.00600000	         -0.13012900	          0.00000000	         -1.92018800	          0.00000000	          0.00000000	          0.00000000	          0.00000000	          0.67258500	          0.00000000	         -0.22945800	          0.00000000	          0.00000000	          0.00000000	
          0.36450000	        -10.38803600	        514.63499200	        -16.12829000	          0.28297000	          0.00600000	         -0.13012300	          0.00000000	         -1.93040700	          0.00000000	          0.00000000	          0.00000000	          0.00000000	          0.67258500	          0.00000000	         -0.22945800	          0.00000000	          0.00000000	          0.00000000	
          0.36500000	        -10.23943000	        514.71546300	        -16.13280400	          0.28307400	          0.00600000	         -0.13011700	          0.00000000	         -1.94059900	          0.00000000	          0.00000000	          0.00000000	          0.00000000	          0.67258500	          0.00000000	         -0.22945800	          0.00000000	          0.00000000	          0.00000000	
          0.36550000	        -10.09093600	        514.80013800	        -16.13793500	          0.28317700	          0.00600000	         -0.13011200	          0.00000000	         -1.95076100	          0.00000000	          0.00000000	          0.00000000	          0.00000000	          0.67258500	          0.00000000	         -0.22945800	          0.00000000	          0.00000000	          0.00000000	
          0.36600000	         -9.94255000	        514.88901000	        -16.14368500	          0.28328000	          0.00600000	         -0.13010600	          0.00000000	         -1.96089500	          0.00000000	          0.00000000	          0.00000000	          0.00000000	          0.67258500	          0.00000000	         -0.22945800	          0.00000000	          0.00000000	          0.00000000	
          0.36650000	         -9.79426500	        514.98207100	        -16.15005700	          0.28338200	          0.00600000	         -0.13010000	          0.00000000	         -1.97100000	          0.00000000	          0.00000000	          0.00000000	          0.00000000	          0.67258500	          0.00000000	         -0.22945800	          0.00000000	          0.00000000	          0.00000000	
          0.36700000	         -9.64607900	        515.07931500	        -16.15705300	          0.28348500	          0.00600000	         -0.13009500	          0.00000000	         -1.98107500	          0.00000000	          0.00000000	          0.00000000	          0.00000000	          0.67258500	          0.00000000	         -0.22945800	          0.00000000	          0.00000000	          0.00000000	
          0.36750000	         -9.49798700	        515.18073300	        -16.16467500	          0.28358700	          0.00600000	         -0.13008900	          0.00000000	         -1.99112000	          0.00000000	          0.00000000	          0.00000000	          0.00000000	          0.67258500	          0.00000000	         -0.22945800	          0.00000000	          0.00000000	          0.00000000	
          0.36800000	         -9.34998300	        515.28631800	        -16.17292500	          0.28368900	          0.00600000	         -0.13008400	          0.00000000	         -2.00113500	          0.00000000	          0.00000000	          0.00000000	          0.00000000	          0.67258500	          0.00000000	         -0.22945800	          0.00000000	          0.00000000	          0.00000000	
          0.36850000	         -9.20206400	        515.39606100	        -16.18180600	          0.28379100	          0.00600000	         -0.13007800	          0.00000000	         -2.01111900	          0.00000000	          0.00000000	          0.00000000	          0.00000000	          0.67258500	          0.00000000	         -0.22945800	          0.00000000	          0.00000000	          0.00000000	
          0.36900000	         -9.05422400	        515.50995400	        -16.19131900	          0.28389200	          0.00600000	         -0.13007300	          0.00000000	         -2.02107200	          0.00000000	          0.00000000	          0.00000000	          0.00000000	          0.67258500	          0.00000000	         -0.22945800	          0.00000000	          0.00000000	          0.00000000	
          0.36950000	         -8.90646000	        515.62798800	        -16.20146600	          0.28399400	          0.00600000	         -0.13006700	          0.00000000	         -2.03099300	          0.00000000	          0.00000000	          0.00000000	          0.00000000	          0.67258500	          0.00000000	         -0.22945800	          0.00000000	          0.00000000	          0.00000000	
          0.37000000	         -8.75876700	        515.75015500	        -16.21225000	          0.28409500	          0.00600000	         -0.13006200	          0.00000000	         -2.04088300	          0.00000000	          0.00000000	          0.00000000	          0.00000000	          0.67258500	          0.00000000	         -0.22945800	          0.00000000	          0.00000000	          0.00000000	
          0.37050000	         -8.61114000	        515.87644500	        -16.22367200	          0.28419600	          0.00600000	         -0.13005600	          0.00000000	         -2.05074000	          0.00000000	          0.00000000	          0.00000000	          0.00000000	          0.67258500	          0.00000000	         -0.22945800	          0.00000000	          0.00000000	          0.00000000	
          0.37100000	         -8.46357400	        516.00685100	        -16.23573400	          0.28429600	          0.00600000	         -0.13005100	          0.00000000	         -2.06056500	          0.00000000	          0.00000000	          0.00000000	          0.00000000	          0.67258500	          0.00000000	         -0.22945800	          0.00000000	          0.00000000	          0.00000000	
